<mxfile host="app.diagrams.net" modified="2023-05-09T06:25:46.771Z" agent="Mozilla/5.0 (Windows NT 10.0; Win64; x64) AppleWebKit/537.36 (KHTML, like Gecko) Chrome/113.0.0.0 Safari/537.36 Edg/113.0.1774.35" etag="ia27p5sGTUEYp_-VPXeS" version="21.2.9" type="device">
  <diagram name="第 1 页" id="4fyE221IIqtbCXpCmiUh">
    <mxGraphModel dx="739" dy="438" grid="1" gridSize="10" guides="1" tooltips="1" connect="1" arrows="1" fold="1" page="1" pageScale="1" pageWidth="827" pageHeight="1169" math="0" shadow="0">
      <root>
        <mxCell id="0" />
        <mxCell id="1" parent="0" />
        <mxCell id="v05558dDQsiZNJkBCUnl-1" value="" style="ellipse;whiteSpace=wrap;html=1;" vertex="1" parent="1">
          <mxGeometry x="300" y="270" width="170" height="80" as="geometry" />
        </mxCell>
        <mxCell id="v05558dDQsiZNJkBCUnl-2" value="&lt;font style=&quot;font-size: 20px;&quot;&gt;不要心灰意code&lt;/font&gt;" style="text;html=1;strokeColor=none;fillColor=none;align=center;verticalAlign=middle;whiteSpace=wrap;rounded=0;" vertex="1" parent="1">
          <mxGeometry x="310" y="290" width="150" height="40" as="geometry" />
        </mxCell>
        <mxCell id="v05558dDQsiZNJkBCUnl-3" value="" style="rounded=0;whiteSpace=wrap;html=1;" vertex="1" parent="1">
          <mxGeometry x="30" y="280" width="120" height="60" as="geometry" />
        </mxCell>
        <mxCell id="v05558dDQsiZNJkBCUnl-4" value="" style="rounded=0;whiteSpace=wrap;html=1;" vertex="1" parent="1">
          <mxGeometry x="620" y="280" width="120" height="60" as="geometry" />
        </mxCell>
        <mxCell id="v05558dDQsiZNJkBCUnl-5" value="" style="endArrow=classic;html=1;rounded=0;exitX=1;exitY=0.25;exitDx=0;exitDy=0;entryX=0.037;entryY=0.325;entryDx=0;entryDy=0;entryPerimeter=0;" edge="1" parent="1" source="v05558dDQsiZNJkBCUnl-3" target="v05558dDQsiZNJkBCUnl-1">
          <mxGeometry width="50" height="50" relative="1" as="geometry">
            <mxPoint x="360" y="300" as="sourcePoint" />
            <mxPoint x="280" y="270" as="targetPoint" />
          </mxGeometry>
        </mxCell>
        <mxCell id="v05558dDQsiZNJkBCUnl-8" value="" style="endArrow=classic;html=1;rounded=0;entryX=0;entryY=0.25;entryDx=0;entryDy=0;exitX=0.955;exitY=0.283;exitDx=0;exitDy=0;exitPerimeter=0;" edge="1" parent="1" source="v05558dDQsiZNJkBCUnl-1" target="v05558dDQsiZNJkBCUnl-4">
          <mxGeometry width="50" height="50" relative="1" as="geometry">
            <mxPoint x="500" y="260" as="sourcePoint" />
            <mxPoint x="620" y="291" as="targetPoint" />
          </mxGeometry>
        </mxCell>
        <mxCell id="v05558dDQsiZNJkBCUnl-9" value="" style="endArrow=classic;html=1;rounded=0;entryX=1;entryY=1;entryDx=0;entryDy=0;" edge="1" parent="1" target="v05558dDQsiZNJkBCUnl-2">
          <mxGeometry width="50" height="50" relative="1" as="geometry">
            <mxPoint x="620" y="330" as="sourcePoint" />
            <mxPoint x="490" y="325" as="targetPoint" />
          </mxGeometry>
        </mxCell>
        <mxCell id="v05558dDQsiZNJkBCUnl-10" value="" style="endArrow=classic;html=1;rounded=0;exitX=0;exitY=1;exitDx=0;exitDy=0;entryX=0.975;entryY=0.658;entryDx=0;entryDy=0;entryPerimeter=0;" edge="1" parent="1" source="v05558dDQsiZNJkBCUnl-2">
          <mxGeometry width="50" height="50" relative="1" as="geometry">
            <mxPoint x="304" y="330" as="sourcePoint" />
            <mxPoint x="150" y="328" as="targetPoint" />
          </mxGeometry>
        </mxCell>
        <mxCell id="v05558dDQsiZNJkBCUnl-11" value="&lt;font style=&quot;font-size: 20px;&quot;&gt;使用者&lt;/font&gt;" style="text;html=1;strokeColor=none;fillColor=none;align=center;verticalAlign=middle;whiteSpace=wrap;rounded=0;" vertex="1" parent="1">
          <mxGeometry x="30" y="280" width="120" height="60" as="geometry" />
        </mxCell>
        <mxCell id="v05558dDQsiZNJkBCUnl-12" value="&lt;font style=&quot;font-size: 20px;&quot;&gt;管理者&lt;/font&gt;" style="text;html=1;strokeColor=none;fillColor=none;align=center;verticalAlign=middle;whiteSpace=wrap;rounded=0;" vertex="1" parent="1">
          <mxGeometry x="620" y="280" width="120" height="60" as="geometry" />
        </mxCell>
        <mxCell id="v05558dDQsiZNJkBCUnl-13" value="&lt;font style=&quot;font-size: 16px;&quot;&gt;註冊資料&lt;/font&gt;" style="text;html=1;strokeColor=none;fillColor=none;align=center;verticalAlign=middle;whiteSpace=wrap;rounded=0;" vertex="1" parent="1">
          <mxGeometry x="190" y="210" width="80" height="30" as="geometry" />
        </mxCell>
        <mxCell id="v05558dDQsiZNJkBCUnl-14" value="&lt;font style=&quot;font-size: 16px;&quot;&gt;關鍵字or篩選請求&lt;/font&gt;" style="text;html=1;strokeColor=none;fillColor=none;align=center;verticalAlign=middle;whiteSpace=wrap;rounded=0;" vertex="1" parent="1">
          <mxGeometry x="145" y="230" width="170" height="30" as="geometry" />
        </mxCell>
        <mxCell id="v05558dDQsiZNJkBCUnl-15" value="&lt;span style=&quot;font-size: 16px;&quot;&gt;發送留言&lt;/span&gt;" style="text;html=1;strokeColor=none;fillColor=none;align=center;verticalAlign=middle;whiteSpace=wrap;rounded=0;" vertex="1" parent="1">
          <mxGeometry x="195" y="250" width="70" height="30" as="geometry" />
        </mxCell>
        <mxCell id="v05558dDQsiZNJkBCUnl-16" value="&lt;font style=&quot;font-size: 16px;&quot;&gt;教材資訊&lt;/font&gt;" style="text;html=1;strokeColor=none;fillColor=none;align=center;verticalAlign=middle;whiteSpace=wrap;rounded=0;" vertex="1" parent="1">
          <mxGeometry x="510" y="330" width="70" height="30" as="geometry" />
        </mxCell>
        <mxCell id="v05558dDQsiZNJkBCUnl-17" value="&lt;font style=&quot;font-size: 16px;&quot;&gt;題目資訊&lt;/font&gt;" style="text;html=1;strokeColor=none;fillColor=none;align=center;verticalAlign=middle;whiteSpace=wrap;rounded=0;" vertex="1" parent="1">
          <mxGeometry x="510" y="350" width="70" height="30" as="geometry" />
        </mxCell>
        <mxCell id="v05558dDQsiZNJkBCUnl-18" value="&lt;font style=&quot;font-size: 16px;&quot;&gt;編輯請求&lt;/font&gt;" style="text;html=1;strokeColor=none;fillColor=none;align=center;verticalAlign=middle;whiteSpace=wrap;rounded=0;" vertex="1" parent="1">
          <mxGeometry x="195" y="270" width="70" height="30" as="geometry" />
        </mxCell>
        <mxCell id="v05558dDQsiZNJkBCUnl-20" value="&lt;font style=&quot;font-size: 16px;&quot;&gt;搜尋請求&lt;/font&gt;" style="text;html=1;strokeColor=none;fillColor=none;align=center;verticalAlign=middle;whiteSpace=wrap;rounded=0;" vertex="1" parent="1">
          <mxGeometry x="507.5" y="370" width="75" height="30" as="geometry" />
        </mxCell>
        <mxCell id="v05558dDQsiZNJkBCUnl-21" value="&lt;font style=&quot;font-size: 16px;&quot;&gt;搜索結果&lt;/font&gt;" style="text;html=1;strokeColor=none;fillColor=none;align=center;verticalAlign=middle;whiteSpace=wrap;rounded=0;" vertex="1" parent="1">
          <mxGeometry x="510" y="270" width="70" height="30" as="geometry" />
        </mxCell>
        <mxCell id="v05558dDQsiZNJkBCUnl-24" value="&lt;span style=&quot;font-size: 16px;&quot;&gt;增刪改查內容請求&lt;/span&gt;" style="text;html=1;strokeColor=none;fillColor=none;align=center;verticalAlign=middle;whiteSpace=wrap;rounded=0;" vertex="1" parent="1">
          <mxGeometry x="477.5" y="390" width="135" height="30" as="geometry" />
        </mxCell>
        <mxCell id="v05558dDQsiZNJkBCUnl-25" value="&lt;font style=&quot;font-size: 16px;&quot;&gt;修改結果&lt;/font&gt;" style="text;html=1;strokeColor=none;fillColor=none;align=center;verticalAlign=middle;whiteSpace=wrap;rounded=0;" vertex="1" parent="1">
          <mxGeometry x="507.5" y="250" width="75" height="30" as="geometry" />
        </mxCell>
        <mxCell id="v05558dDQsiZNJkBCUnl-26" value="&lt;font style=&quot;font-size: 16px;&quot;&gt;編輯結果&lt;/font&gt;" style="text;html=1;strokeColor=none;fillColor=none;align=center;verticalAlign=middle;whiteSpace=wrap;rounded=0;" vertex="1" parent="1">
          <mxGeometry x="190" y="330" width="75" height="30" as="geometry" />
        </mxCell>
        <mxCell id="v05558dDQsiZNJkBCUnl-27" value="&lt;font style=&quot;font-size: 16px;&quot;&gt;搜索結果&lt;/font&gt;" style="text;html=1;strokeColor=none;fillColor=none;align=center;verticalAlign=middle;whiteSpace=wrap;rounded=0;" vertex="1" parent="1">
          <mxGeometry x="190" y="350" width="75" height="30" as="geometry" />
        </mxCell>
      </root>
    </mxGraphModel>
  </diagram>
</mxfile>
